<svg width="537" height="416" viewBox="0 0 537 416" fill="none" xmlns="http://www.w3.org/2000/svg">
<path d="M172 256H364C372.487 256 380.626 252.629 386.627 246.627C392.629 240.626 396 232.487 396 224V32C396 23.5131 392.629 15.3738 386.627 9.37259C380.626 3.37143 372.487 0 364 0H172C163.513 0 155.374 3.37143 149.373 9.37259C143.371 15.3738 140 23.5131 140 32V224C140 232.487 143.371 240.626 149.373 246.627C155.374 252.629 163.513 256 172 256Z" fill="#0F2853"/>
<path d="M327 160.54C327 142.77 315.23 126.77 297 122.99C312.1 118.55 323.43 106.33 323.43 87.44C323.43 62.78 304.55 47 272.8 47L209.33 47.17L209 203H275.26C308.12 203 327 186.34 327 160.56" fill="white"/>
<path d="M261.85 76.86C259.937 77.3187 258.158 78.2173 256.654 79.4846C255.149 80.7518 253.962 82.3526 253.185 84.1596C252.408 85.9666 252.064 87.93 252.179 89.8935C252.295 91.857 252.867 93.7665 253.85 95.47C256.207 99.3822 258.215 103.495 259.85 107.76C261.089 111.072 261.66 114.596 261.53 118.13C261.292 121.792 260.39 125.38 258.87 128.72C256.595 133.746 253.76 138.499 250.42 142.89C248.223 145.747 246.888 149.171 246.57 152.76C246.548 152.871 246.511 152.979 246.46 153.08V155.35C246.63 156.35 246.75 157.35 246.96 158.35C247.75 161.887 249.589 165.104 252.237 167.578C254.884 170.053 258.218 171.671 261.8 172.22C262.29 172.29 262.8 172.39 263.28 172.47H265.52C266.52 172.3 267.52 172.18 268.45 171.97C271.986 171.141 275.19 169.267 277.646 166.591C280.102 163.916 281.696 160.564 282.22 156.97C282.28 156.47 282.38 155.97 282.46 155.47V153.2C282.3 152.25 282.18 151.29 281.98 150.34C281.481 147.875 280.458 145.545 278.98 143.51C276.186 139.75 273.695 135.774 271.53 131.62C269.731 128.224 268.479 124.566 267.82 120.78C267.24 116.819 267.6 112.777 268.87 108.98C270.374 104.665 272.332 100.522 274.71 96.62C275.769 94.9234 276.514 93.0502 276.91 91.09C277.412 87.873 276.651 84.5865 274.788 81.9165C272.925 79.2465 270.103 77.3991 266.91 76.76L265.54 76.5H263.66C263.05 76.62 262.43 76.73 261.83 76.86" fill="#0F2853"/>
<path d="M71.1764 374.084C74.4805 378.281 76.2461 383.481 76.1797 388.819C76.1797 396.811 73.3879 403.138 67.8042 407.8C62.2206 412.462 54.4421 414.793 44.4689 414.793H0V319.408H43.0281C52.7344 319.408 60.336 321.629 65.833 326.071C71.3299 330.514 74.0716 336.534 74.0583 344.134C74.0583 349.748 72.584 354.41 69.6354 358.12C66.628 361.894 62.4965 364.616 57.8378 365.892C63.1347 366.929 67.8743 369.851 71.1764 374.114V374.084ZM23.2652 358.02H38.5151C42.3176 358.02 45.2495 357.181 47.2908 355.502C49.3322 353.824 50.3528 351.366 50.3528 348.1C50.3528 344.833 49.3522 342.355 47.2908 340.627C45.2295 338.899 42.2876 338.05 38.5151 338.05H23.2652V358.02ZM49.4623 393.404C51.5904 391.64 52.6577 389.082 52.6643 385.732C52.7405 384.252 52.4803 382.775 51.9032 381.41C51.3262 380.045 50.4472 378.828 49.3322 377.85C47.1008 375.952 44.0487 374.993 40.1462 374.993H23.2652V396.052H40.4164C44.3189 396.052 47.3209 395.169 49.4222 393.404" fill="#054E8B"/>
<path d="M91.3797 327.49C90.133 326.372 89.1419 325 88.4738 323.465C87.8056 321.931 87.4759 320.272 87.5072 318.599C87.4739 316.911 87.8022 315.236 88.4701 313.686C89.138 312.135 90.13 310.745 91.3797 309.608C94.1187 307.154 97.7088 305.863 101.386 306.011C105.019 305.88 108.559 307.171 111.253 309.608C112.502 310.745 113.495 312.135 114.162 313.686C114.83 315.236 115.159 316.911 115.125 318.599C115.157 320.272 114.827 321.931 114.159 323.465C113.491 325 112.499 326.372 111.253 327.49C108.563 329.935 105.021 331.23 101.386 331.096C97.707 331.245 94.1155 329.951 91.3797 327.49ZM112.954 414.763H89.6786V338.969H112.954V414.763Z" fill="#054E8B"/>
<path d="M144.324 411.097C138.451 407.995 133.59 403.281 130.315 397.51C126.951 391.158 125.198 384.078 125.211 376.892C125.223 369.706 126.999 362.633 130.385 356.291C133.701 350.486 138.61 345.748 144.534 342.635C150.788 339.512 157.685 337.886 164.677 337.886C171.67 337.886 178.566 339.512 184.82 342.635C190.742 345.75 195.651 350.488 198.97 356.291C202.377 362.62 204.155 369.695 204.143 376.88C204.13 384.065 202.329 391.134 198.9 397.45C195.533 403.263 190.576 407.997 184.61 411.097C178.371 414.32 171.431 415.953 164.407 415.852C157.423 415.966 150.522 414.332 144.334 411.097H144.324ZM175.755 390.867C178.883 387.61 180.451 382.948 180.458 376.881C180.464 370.814 178.943 366.152 175.895 362.895C174.452 361.358 172.71 360.131 170.776 359.291C168.841 358.451 166.755 358.014 164.645 358.009C162.536 358.003 160.447 358.428 158.508 359.258C156.569 360.088 154.82 361.305 153.37 362.835C150.375 366.038 148.877 370.724 148.877 376.891C148.877 383.058 150.351 387.72 153.3 390.877C154.677 392.455 156.386 393.711 158.303 394.557C160.221 395.403 162.301 395.818 164.397 395.772C166.529 395.8 168.642 395.379 170.599 394.535C172.557 393.692 174.313 392.445 175.755 390.877" fill="#054E8B"/>
<path d="M314.775 320.767V414.763H302.387V344.673L271.087 414.763H262.381L230.941 344.543V414.763H218.553V320.767H231.891L266.734 398.469L301.567 320.767H314.775Z" fill="#1B96D8"/>
<path d="M335.729 357.24C338.64 351.698 343.05 347.081 348.457 343.914C353.919 340.729 360.144 339.085 366.469 339.158C372.415 339.011 378.291 340.463 383.48 343.364C387.966 345.833 391.692 349.477 394.257 353.904V340.317H406.775V414.753H394.257V400.907C391.628 405.43 387.826 409.161 383.25 411.706C378.097 414.642 372.241 416.123 366.309 415.992C359.963 416.084 353.721 414.387 348.297 411.097C342.889 407.781 338.507 403.033 335.639 397.381C332.478 391.158 330.89 384.257 331.016 377.281C330.863 370.321 332.452 363.433 335.639 357.24H335.729ZM390.755 362.745C388.654 358.754 385.471 355.434 381.569 353.165C377.697 350.991 373.332 349.843 368.89 349.831C364.448 349.819 360.076 350.942 356.192 353.095C352.312 355.339 349.151 358.637 347.076 362.605C344.717 367.131 343.543 372.18 343.664 377.281C343.541 382.445 344.714 387.559 347.076 392.156C349.147 396.161 352.306 399.502 356.192 401.796C360.031 404.022 364.401 405.171 368.841 405.123C373.305 405.168 377.699 404.019 381.569 401.796C385.481 399.512 388.665 396.17 390.755 392.156C393.105 387.602 394.275 382.532 394.157 377.41C394.281 372.314 393.111 367.268 390.755 362.745Z" fill="#1B96D8"/>
<path d="M449.433 342.505C453.947 340.028 459.044 338.807 464.193 338.969V351.736H460.931C447.055 351.736 440.114 359.252 440.107 374.283V414.763H427.729V340.327H440.107V352.415C442.18 348.274 445.422 344.829 449.433 342.505Z" fill="#1B96D8"/>
<path d="M520.129 414.763L490.87 381.896V414.763H478.482V314.253H490.87V373.334L519.579 340.327H536.87L501.757 377.41L537 414.763H520.129Z" fill="#1B96D8"/>
</svg>
