<svg xmlns="http://www.w3.org/2000/svg" viewBox="0 0 256.23 256"><defs><style>.cls-1{fill:#003060;}.cls-2{fill:#fff;}</style></defs><g id="Layer_2" data-name="Layer 2"><g id="Logo_coloured" data-name="Logo coloured"><path class="cls-1" d="M0,256V0H256l.23,256"/><path class="cls-2" d="M187,160.54c0-17.77-11.77-33.77-30-37.55,15.1-4.44,26.43-16.66,26.43-35.55,0-24.66-18.88-40.44-50.63-40.44l-63.47.17L69,203l66.26,0c32.86,0,51.74-16.66,51.74-42.44"/><path class="cls-1" d="M121.85,76.86a12.64,12.64,0,0,0-8,18.61,77.66,77.66,0,0,1,6,12.29,26.77,26.77,0,0,1,1.68,10.37,30.31,30.31,0,0,1-2.66,10.59,73.41,73.41,0,0,1-8.45,14.17,18.93,18.93,0,0,0-3.85,9.87,1.21,1.21,0,0,1-.11.32v2.27c.17,1,.29,2,.5,3a18,18,0,0,0,14.84,13.87c.49.07,1,.17,1.48.25h2.24c1-.17,2-.29,2.93-.5a18.09,18.09,0,0,0,13.77-15c.06-.5.16-1,.24-1.5V153.2c-.16-.95-.28-1.91-.48-2.86a17.54,17.54,0,0,0-3-6.83,88.45,88.45,0,0,1-7.45-11.89,36.54,36.54,0,0,1-3.71-10.84,25.53,25.53,0,0,1,1.05-11.8,64.66,64.66,0,0,1,5.84-12.36,16.69,16.69,0,0,0,2.2-5.53,12.63,12.63,0,0,0-10-14.33l-1.37-.26h-1.88c-.61.12-1.23.23-1.83.36"/></g></g></svg>